<svg width="107" height="107" viewBox="0 0 107 107" fill="none" xmlns="http://www.w3.org/2000/svg">
<g clip-path="url(#clip0_8_137)">
<path d="M103.531 38.0831V89.9692L90.6914 102.64H86.2777L84.2803 105.234H70.3079L39.6792 55.6489L29.3091 26.1169H1.26617V10.9497L9.35359 2.76416H37.0844L82.3811 21.721L103.531 38.0831Z" fill="black" fill-opacity="0.4" stroke="#999B97" stroke-width="0.75" stroke-miterlimit="10"/>
<path d="M98.2438 1.26617H33.2948L25.2163 9.05042H9.05042L1.26617 16.8347V26.7143L5.45701 31.5026V101.543L8.45301 105.734H72.2072L76.0948 102.14H80.8831L98.2438 86.5719V42.5771L105.734 34.1954V9.05042L98.2438 1.26617Z" fill="black" stroke="#999B97" stroke-width="2" stroke-miterlimit="10"/>
<path d="M11.1993 100.446H26.5628L28.7563 98.8502V91.0659H15.3902L11.1993 95.7561V100.446Z" fill="#6D6A6A"/>
<path d="M34.1419 100.446H49.5053L51.7077 98.8502V91.0659H38.3327L34.1419 95.7561V100.446Z" fill="#6D6A6A"/>
<path d="M56.7457 100.446H72.1091L74.3026 98.8502V91.0659H60.9365L56.7457 95.7561V100.446Z" fill="#6D6A6A"/>
</g>
<defs>
<clipPath id="clip0_8_137">
<rect width="107" height="107" fill="white"/>
</clipPath>
</defs>
</svg>
