<svg width="81" height="80" viewBox="0 0 81 80" fill="none" xmlns="http://www.w3.org/2000/svg">
<path d="M37.9265 44.8885L0.678528 14.2245V22.9712L33.2079 49.1139L33.4052 51.6685L5.88653 29.8525L5.98386 36.1419L33.1105 57.5659V60.1232L11.9785 43.1192V48.6245L33.2079 65.5272V67.7885L18.3665 56.0925V61.0059L33.2079 72.7019V76.5352L37.3359 79.7779H38.3199L37.9265 44.8885Z" fill="white"/>
<path d="M43.6257 44.8885L80.8737 14.2245V22.9712L48.3417 49.1139L48.1471 51.6685L75.6657 29.8525L75.5684 36.1419L48.4417 57.5659V60.1232L69.5711 43.1192V48.6245L48.3417 65.5272V67.7885L63.1831 56.0925V61.0059L48.3417 72.7019V76.5352L44.2164 79.7779H43.2324L43.6257 44.8885Z" fill="white"/>
<path d="M40.6759 0.957478L36.4505 13.3388L22.0039 13.8068L33.7119 22.1081L29.1772 35.6495L40.6759 27.3948L51.5865 35.6495L47.8012 22.2841L59.1559 13.6348L44.4119 13.1441L40.6759 0.957478Z" fill="white"/>
</svg>
