<svg width="465" height="734" viewBox="0 0 465 734" fill="none" xmlns="http://www.w3.org/2000/svg">
<path d="M32.4319 731.277H183.913V733.963H32.4319V731.277Z" fill="white"/>
<path d="M44.9134 733.963H2.2467V728.629H44.9134V733.963Z" fill="white"/>
<path d="M433.445 731.277H281.964V733.963H433.445V731.277Z" fill="white"/>
<path d="M420.964 733.963H463.631V728.629H420.964V733.963Z" fill="white"/>
<path d="M31.0986 553.944H182.58V556.629H31.0986V553.944Z" fill="white"/>
<path d="M43.58 556.631H0.91333V551.297H43.58V556.631Z" fill="white"/>
<path d="M434.779 553.944H283.297V556.629H434.779V553.944Z" fill="white"/>
<path d="M422.297 556.631H464.964V551.297H422.297V556.631Z" fill="white"/>
<path d="M33.7653 375.279H185.247V377.964H33.7653V375.279Z" fill="white"/>
<path d="M46.2467 377.964H3.58008V372.631H46.2467V377.964Z" fill="white"/>
<path d="M430.779 375.279H279.297V377.964H430.779V375.279Z" fill="white"/>
<path d="M418.297 377.964H460.964V372.631H418.297V377.964Z" fill="white"/>
<path d="M39.0986 198.389H190.58V201.075H39.0986V198.389Z" fill="white"/>
<path d="M51.58 201.075H8.91333V195.741H51.58V201.075Z" fill="white"/>
<path d="M426.779 198.389H275.297V201.075H426.779V198.389Z" fill="white"/>
<path d="M414.297 201.075H456.964V195.741H414.297V201.075Z" fill="white"/>
<path d="M39.0986 21.5H190.58V24.1853H39.0986V21.5Z" fill="white"/>
<path d="M51.58 24.1853H8.91333V18.852H51.58V24.1853Z" fill="white"/>
<path d="M426.779 21.5H275.297V24.1853H426.779V21.5Z" fill="white"/>
<path d="M414.297 24.1853H456.964V18.852H414.297V24.1853Z" fill="white"/>
<path d="M196.928 711.011H200.213V722.958H207.659V725.945H196.928V711.011ZM208.856 711.011H212.483L216.387 721.529L220.291 711.011H223.832L217.795 726.051H214.894L208.856 711.011ZM226.136 711.011H229.422V722.958H236.867V725.945H226.136V711.011ZM250.583 726.201C249.232 726.201 248.08 725.966 247.127 725.497C246.189 725.013 245.399 724.387 244.759 723.619L247.021 721.465C247.533 722.048 248.066 722.496 248.621 722.809C249.189 723.107 249.858 723.257 250.626 723.257C251.252 723.257 251.757 723.093 252.141 722.766C252.539 722.439 252.738 721.998 252.738 721.443V721.401C252.738 720.789 252.482 720.32 251.97 719.993C251.458 719.666 250.74 719.502 249.815 719.502H248.45L247.938 717.411L251.501 713.827H245.634V711.011H255.725V713.486L251.949 717.091C252.461 717.177 252.951 717.312 253.421 717.497C253.904 717.682 254.331 717.938 254.701 718.265C255.085 718.592 255.39 719.004 255.618 719.502C255.845 719.986 255.959 720.576 255.959 721.273V721.315C255.959 722.026 255.831 722.681 255.575 723.278C255.333 723.861 254.978 724.373 254.509 724.814C254.053 725.255 253.492 725.596 252.823 725.838C252.155 726.08 251.408 726.201 250.583 726.201ZM265.007 723.235C265.504 723.235 265.952 723.122 266.351 722.894C266.749 722.652 267.09 722.325 267.375 721.913C267.659 721.486 267.872 720.988 268.015 720.419C268.171 719.836 268.249 719.203 268.249 718.521V718.478C268.249 717.795 268.171 717.17 268.015 716.601C267.858 716.018 267.631 715.513 267.332 715.086C267.047 714.659 266.699 714.325 266.287 714.083C265.888 713.842 265.447 713.721 264.964 713.721C264.466 713.721 264.018 713.842 263.62 714.083C263.222 714.311 262.88 714.638 262.596 715.065C262.326 715.477 262.112 715.975 261.956 716.558C261.799 717.127 261.721 717.753 261.721 718.435V718.478C261.721 719.161 261.799 719.794 261.956 720.377C262.112 720.96 262.333 721.465 262.617 721.891C262.902 722.304 263.243 722.631 263.641 722.873C264.054 723.114 264.509 723.235 265.007 723.235ZM264.964 726.201C263.968 726.201 263.058 726.009 262.233 725.625C261.423 725.226 260.726 724.686 260.143 724.003C259.574 723.306 259.133 722.489 258.82 721.55C258.507 720.611 258.351 719.602 258.351 718.521V718.478C258.351 717.397 258.507 716.387 258.82 715.449C259.147 714.51 259.602 713.692 260.185 712.995C260.768 712.298 261.465 711.751 262.276 711.353C263.101 710.954 264.011 710.755 265.007 710.755C265.988 710.755 266.884 710.954 267.695 711.353C268.519 711.737 269.216 712.277 269.785 712.974C270.368 713.657 270.816 714.467 271.129 715.406C271.456 716.345 271.62 717.354 271.62 718.435V718.478C271.62 719.559 271.456 720.569 271.129 721.507C270.816 722.446 270.368 723.264 269.785 723.961C269.202 724.658 268.498 725.205 267.673 725.603C266.863 726.002 265.959 726.201 264.964 726.201Z" fill="white"/>
<path d="M197.355 533.667H200.64V545.614H208.085V548.601H197.355V533.667ZM209.283 533.667H212.91L216.814 544.185L220.718 533.667H224.259L218.222 548.707H215.32L209.283 533.667ZM226.563 533.667H229.848V545.614H237.294V548.601H226.563V533.667ZM245.421 545.998L250.391 541.923C250.861 541.539 251.259 541.198 251.586 540.899C251.913 540.586 252.176 540.295 252.375 540.025C252.589 539.74 252.738 539.47 252.823 539.214C252.923 538.944 252.973 538.652 252.973 538.339C252.973 537.699 252.788 537.216 252.418 536.889C252.048 536.562 251.565 536.398 250.967 536.398C250.384 536.398 249.865 536.562 249.41 536.889C248.969 537.216 248.471 537.721 247.917 538.403L245.613 536.547C245.982 536.05 246.352 535.609 246.722 535.225C247.106 534.841 247.511 534.521 247.938 534.265C248.379 533.994 248.862 533.795 249.389 533.667C249.915 533.525 250.512 533.454 251.181 533.454C251.949 533.454 252.645 533.568 253.271 533.795C253.911 534.009 254.452 534.314 254.893 534.713C255.348 535.111 255.696 535.594 255.938 536.163C256.194 536.732 256.322 537.365 256.322 538.062V538.105C256.322 538.73 256.237 539.292 256.066 539.79C255.909 540.274 255.668 540.736 255.341 541.177C255.028 541.603 254.622 542.037 254.125 542.478C253.627 542.905 253.051 543.374 252.397 543.886L249.965 545.763H256.471V548.601H245.421V545.998ZM266.158 542.713V538.062L262.19 542.713H266.158ZM266.158 545.379H258.862L258.328 543.054L266.52 533.561H269.294V542.713H271.299V545.379H269.294V548.601H266.158V545.379Z" fill="white"/>
<path d="M200.192 178.553H203.477V190.499H210.923V193.486H200.192V178.553ZM212.12 178.553H215.747L219.651 189.07L223.555 178.553H227.096L221.059 193.593H218.158L212.12 178.553ZM229.4 178.553H232.686V190.499H240.131V193.486H229.4V178.553ZM251.01 181.774L248.407 182.414L247.725 179.726L252.013 178.446H254.253V193.486H251.01V181.774ZM257.258 190.883L262.229 186.809C262.698 186.425 263.096 186.083 263.423 185.785C263.75 185.472 264.014 185.18 264.213 184.91C264.426 184.626 264.575 184.355 264.661 184.099C264.76 183.829 264.81 183.538 264.81 183.225C264.81 182.585 264.625 182.101 264.255 181.774C263.886 181.447 263.402 181.283 262.805 181.283C262.222 181.283 261.702 181.447 261.247 181.774C260.806 182.101 260.309 182.606 259.754 183.289L257.45 181.433C257.82 180.935 258.19 180.494 258.559 180.11C258.943 179.726 259.349 179.406 259.775 179.15C260.216 178.88 260.7 178.681 261.226 178.553C261.752 178.41 262.35 178.339 263.018 178.339C263.786 178.339 264.483 178.453 265.109 178.681C265.749 178.894 266.289 179.2 266.73 179.598C267.185 179.996 267.534 180.48 267.775 181.049C268.031 181.618 268.159 182.25 268.159 182.947V182.99C268.159 183.616 268.074 184.178 267.903 184.675C267.747 185.159 267.505 185.621 267.178 186.062C266.865 186.489 266.46 186.922 265.962 187.363C265.464 187.79 264.888 188.259 264.234 188.771L261.802 190.649H268.309V193.486H257.258V190.883Z" fill="white"/>
<path d="M200.107 356.345H203.392V368.291H210.837V371.278H200.107V356.345ZM212.035 356.345H215.662L219.566 366.862L223.47 356.345H227.011L220.974 371.385H218.072L212.035 356.345ZM229.315 356.345H232.6V368.291H240.046V371.278H229.315V356.345ZM250.925 359.566L248.322 360.206L247.639 357.518L251.927 356.238H254.167V371.278H250.925V359.566ZM262.847 368.782C263.658 368.782 264.291 368.604 264.746 368.249C265.201 367.893 265.429 367.452 265.429 366.926V366.883C265.429 366.3 265.187 365.852 264.703 365.539C264.22 365.212 263.601 365.049 262.847 365.049C262.094 365.049 261.475 365.212 260.991 365.539C260.508 365.852 260.266 366.3 260.266 366.883V366.926C260.266 367.438 260.494 367.879 260.949 368.249C261.404 368.604 262.037 368.782 262.847 368.782ZM262.847 362.446C263.502 362.446 264.021 362.275 264.405 361.934C264.789 361.593 264.981 361.159 264.981 360.633V360.59C264.981 360.135 264.796 359.73 264.426 359.374C264.056 359.018 263.53 358.841 262.847 358.841C262.165 358.841 261.638 359.018 261.269 359.374C260.899 359.715 260.714 360.114 260.714 360.569V360.611C260.714 361.138 260.906 361.578 261.29 361.934C261.674 362.275 262.193 362.446 262.847 362.446ZM262.847 371.491C262.022 371.491 261.254 371.392 260.543 371.193C259.846 370.979 259.242 370.688 258.73 370.318C258.218 369.934 257.813 369.479 257.514 368.953C257.23 368.426 257.087 367.836 257.087 367.182V367.139C257.087 366.229 257.286 365.497 257.685 364.942C258.097 364.373 258.702 363.904 259.498 363.534C258.915 363.178 258.453 362.752 258.111 362.254C257.77 361.742 257.599 361.081 257.599 360.27V360.227C257.599 359.658 257.72 359.125 257.962 358.627C258.218 358.13 258.574 357.696 259.029 357.326C259.498 356.956 260.053 356.665 260.693 356.451C261.333 356.238 262.051 356.131 262.847 356.131C263.63 356.131 264.341 356.238 264.981 356.451C265.635 356.665 266.19 356.956 266.645 357.326C267.114 357.682 267.47 358.115 267.711 358.627C267.967 359.125 268.095 359.658 268.095 360.227V360.27C268.095 361.081 267.925 361.742 267.583 362.254C267.242 362.752 266.78 363.178 266.197 363.534C266.95 363.932 267.541 364.402 267.967 364.942C268.394 365.468 268.607 366.172 268.607 367.054V367.097C268.607 367.794 268.458 368.412 268.159 368.953C267.875 369.493 267.477 369.955 266.965 370.339C266.453 370.709 265.841 370.994 265.13 371.193C264.433 371.392 263.672 371.491 262.847 371.491Z" fill="white"/>
<path d="M203.989 1.2087H207.275V13.1554H214.72V16.142H203.989V1.2087ZM215.918 1.2087H219.544L223.448 11.726L227.352 1.2087H230.894L224.856 16.2487H221.955L215.918 1.2087ZM233.198 1.2087H236.483V13.1554H243.928V16.142H233.198V1.2087ZM258.114 13.582C258.925 13.582 259.55 13.3758 259.991 12.9634C260.446 12.5509 260.674 12.0247 260.674 11.3847V11.342C260.674 10.702 260.439 10.1829 259.97 9.7847C259.515 9.37225 258.882 9.16603 258.071 9.16603C257.261 9.16603 256.628 9.36514 256.173 9.76336C255.732 10.1616 255.511 10.6807 255.511 11.3207V11.3634C255.511 12.0034 255.739 12.5367 256.194 12.9634C256.663 13.3758 257.303 13.582 258.114 13.582ZM258.242 16.398C257.261 16.398 256.429 16.2629 255.746 15.9927C255.063 15.7225 254.459 15.3243 253.933 14.798C253.392 14.2576 252.958 13.5536 252.631 12.686C252.318 11.8043 252.162 10.6238 252.162 9.1447V9.10203C252.162 7.95003 252.29 6.87625 252.546 5.8807C252.816 4.88514 253.221 4.0247 253.762 3.29936C254.302 2.57403 254.985 2.00514 255.81 1.5927C256.635 1.16603 257.602 0.952696 258.711 0.952696C259.223 0.952696 259.693 0.988252 260.119 1.05936C260.546 1.13047 260.944 1.23714 261.314 1.37936C261.684 1.52158 262.039 1.69936 262.381 1.9127C262.722 2.11181 263.056 2.33936 263.383 2.59536L261.655 5.13403C261.413 4.94914 261.179 4.78558 260.951 4.64336C260.724 4.48692 260.489 4.35892 260.247 4.25936C260.005 4.15981 259.749 4.08158 259.479 4.0247C259.209 3.96781 258.917 3.93936 258.605 3.93936C258.135 3.93936 257.723 4.03181 257.367 4.2167C257.026 4.38736 256.727 4.62914 256.471 4.94203C256.229 5.2407 256.037 5.60336 255.895 6.03003C255.753 6.4567 255.653 6.91181 255.597 7.39536C255.966 7.15358 256.386 6.93314 256.855 6.73403C257.339 6.53492 257.95 6.43536 258.69 6.43536C259.429 6.43536 260.119 6.54203 260.759 6.75536C261.399 6.95447 261.954 7.25314 262.423 7.65136C262.893 8.04958 263.262 8.54736 263.533 9.1447C263.803 9.72781 263.938 10.4105 263.938 11.1927V11.2354C263.938 12.0034 263.789 12.7074 263.49 13.3474C263.205 13.9731 262.807 14.5136 262.295 14.9687C261.797 15.4238 261.2 15.7794 260.503 16.0354C259.806 16.2771 259.053 16.398 258.242 16.398Z" fill="white"/>
</svg>
