<svg width="465" height="734" viewBox="0 0 465 734" fill="none" xmlns="http://www.w3.org/2000/svg">
<path d="M31.7775 731.277H183.259V733.963H31.7775V731.277Z" fill="white"/>
<path d="M44.2588 733.963H1.5921V728.629H44.2588V733.963Z" fill="white"/>
<path d="M432.791 731.277H281.309V733.963H432.791V731.277Z" fill="white"/>
<path d="M420.309 733.963H462.976V728.629H420.309V733.963Z" fill="white"/>
<path d="M30.4441 553.944H181.925V556.629H30.4441V553.944Z" fill="white"/>
<path d="M42.9255 556.631H0.258789V551.297H42.9255V556.631Z" fill="white"/>
<path d="M434.124 553.944H282.643V556.629H434.124V553.944Z" fill="white"/>
<path d="M421.643 556.631H464.309V551.297H421.643V556.631Z" fill="white"/>
<path d="M33.1108 375.279H184.592V377.964H33.1108V375.279Z" fill="white"/>
<path d="M45.5921 377.964H2.92545V372.631H45.5921V377.964Z" fill="white"/>
<path d="M430.124 375.279H278.643V377.964H430.124V375.279Z" fill="white"/>
<path d="M417.643 377.964H460.309V372.631H417.643V377.964Z" fill="white"/>
<path d="M38.4441 198.389H189.925V201.075H38.4441V198.389Z" fill="white"/>
<path d="M50.9255 201.075H8.25879V195.741H50.9255V201.075Z" fill="white"/>
<path d="M426.124 198.389H274.643V201.075H426.124V198.389Z" fill="white"/>
<path d="M413.643 201.075H456.309V195.741H413.643V201.075Z" fill="white"/>
<path d="M38.4441 21.5001H189.925V24.1854H38.4441V21.5001Z" fill="white"/>
<path d="M50.9255 24.1854H8.25879V18.8521H50.9255V24.1854Z" fill="white"/>
<path d="M426.124 21.5001H274.643V24.1854H426.124V21.5001Z" fill="white"/>
<path d="M413.643 24.1854H456.309V18.8521H413.643V24.1854Z" fill="white"/>
<path d="M196.977 711.011H200.262V722.958H207.708V725.945H196.977V711.011ZM208.905 711.011H212.532L216.436 721.529L220.34 711.011H223.881L217.844 726.051H214.943L208.905 711.011ZM226.185 711.011H229.471V722.958H236.916V725.945H226.185V711.011ZM245.043 723.342L250.014 719.267C250.483 718.883 250.881 718.542 251.208 718.243C251.535 717.931 251.798 717.639 251.998 717.369C252.211 717.084 252.36 716.814 252.446 716.558C252.545 716.288 252.595 715.996 252.595 715.683C252.595 715.043 252.41 714.56 252.04 714.233C251.67 713.906 251.187 713.742 250.59 713.742C250.006 713.742 249.487 713.906 249.032 714.233C248.591 714.56 248.094 715.065 247.539 715.747L245.235 713.891C245.605 713.394 245.974 712.953 246.344 712.569C246.728 712.185 247.134 711.865 247.56 711.609C248.001 711.339 248.485 711.139 249.011 711.011C249.537 710.869 250.134 710.798 250.803 710.798C251.571 710.798 252.268 710.912 252.894 711.139C253.534 711.353 254.074 711.659 254.515 712.057C254.97 712.455 255.318 712.939 255.56 713.507C255.816 714.076 255.944 714.709 255.944 715.406V715.449C255.944 716.075 255.859 716.636 255.688 717.134C255.532 717.618 255.29 718.08 254.963 718.521C254.65 718.947 254.245 719.381 253.747 719.822C253.249 720.249 252.673 720.718 252.019 721.23L249.587 723.107H256.094V725.945H245.043V723.342ZM264.393 723.385C265.204 723.385 265.83 723.179 266.271 722.766C266.726 722.354 266.953 721.827 266.953 721.187V721.145C266.953 720.505 266.719 719.986 266.249 719.587C265.794 719.175 265.161 718.969 264.351 718.969C263.54 718.969 262.907 719.168 262.452 719.566C262.011 719.964 261.791 720.483 261.791 721.123V721.166C261.791 721.806 262.018 722.339 262.473 722.766C262.943 723.179 263.583 723.385 264.393 723.385ZM264.521 726.201C263.54 726.201 262.708 726.066 262.025 725.795C261.343 725.525 260.738 725.127 260.212 724.601C259.671 724.06 259.238 723.356 258.911 722.489C258.598 721.607 258.441 720.427 258.441 718.947V718.905C258.441 717.753 258.569 716.679 258.825 715.683C259.095 714.688 259.501 713.827 260.041 713.102C260.582 712.377 261.264 711.808 262.089 711.395C262.914 710.969 263.881 710.755 264.991 710.755C265.503 710.755 265.972 710.791 266.399 710.862C266.825 710.933 267.223 711.04 267.593 711.182C267.963 711.324 268.319 711.502 268.66 711.715C269.001 711.915 269.335 712.142 269.663 712.398L267.935 714.937C267.693 714.752 267.458 714.588 267.231 714.446C267.003 714.29 266.768 714.162 266.527 714.062C266.285 713.963 266.029 713.884 265.759 713.827C265.488 713.771 265.197 713.742 264.884 713.742C264.415 713.742 264.002 713.835 263.647 714.019C263.305 714.19 263.007 714.432 262.751 714.745C262.509 715.043 262.317 715.406 262.175 715.833C262.032 716.259 261.933 716.715 261.876 717.198C262.246 716.956 262.665 716.736 263.135 716.537C263.618 716.338 264.23 716.238 264.969 716.238C265.709 716.238 266.399 716.345 267.039 716.558C267.679 716.757 268.233 717.056 268.703 717.454C269.172 717.852 269.542 718.35 269.812 718.947C270.082 719.531 270.217 720.213 270.217 720.995V721.038C270.217 721.806 270.068 722.51 269.769 723.15C269.485 723.776 269.087 724.316 268.575 724.771C268.077 725.227 267.479 725.582 266.783 725.838C266.086 726.08 265.332 726.201 264.521 726.201Z" fill="white"/>
<path d="M196.252 533.667H199.537V545.614H206.982V548.601H196.252V533.667ZM208.18 533.667H211.807L215.711 544.185L219.615 533.667H223.156L217.119 548.707H214.217L208.18 533.667ZM225.46 533.667H228.745V545.614H236.191V548.601H225.46V533.667ZM244.318 545.998L249.288 541.923C249.758 541.539 250.156 541.198 250.483 540.899C250.81 540.586 251.073 540.295 251.272 540.025C251.486 539.74 251.635 539.47 251.72 539.214C251.82 538.944 251.87 538.652 251.87 538.339C251.87 537.699 251.685 537.216 251.315 536.889C250.945 536.562 250.462 536.398 249.864 536.398C249.281 536.398 248.762 536.562 248.307 536.889C247.866 537.216 247.368 537.721 246.814 538.403L244.51 536.547C244.879 536.05 245.249 535.609 245.619 535.225C246.003 534.841 246.408 534.521 246.835 534.265C247.276 533.994 247.759 533.795 248.286 533.667C248.812 533.525 249.409 533.454 250.078 533.454C250.846 533.454 251.542 533.568 252.168 533.795C252.808 534.009 253.349 534.314 253.79 534.713C254.245 535.111 254.593 535.594 254.835 536.163C255.091 536.732 255.219 537.365 255.219 538.062V538.105C255.219 538.73 255.134 539.292 254.963 539.79C254.806 540.274 254.565 540.736 254.238 541.177C253.925 541.603 253.519 542.037 253.022 542.478C252.524 542.905 251.948 543.374 251.294 543.886L248.862 545.763H255.368V548.601H244.318V545.998ZM264.372 545.891C264.87 545.891 265.318 545.778 265.716 545.55C266.114 545.308 266.455 544.981 266.74 544.569C267.024 544.142 267.238 543.644 267.38 543.075C267.536 542.492 267.615 541.859 267.615 541.177V541.134C267.615 540.451 267.536 539.826 267.38 539.257C267.223 538.674 266.996 538.169 266.697 537.742C266.413 537.315 266.064 536.981 265.652 536.739C265.254 536.498 264.813 536.377 264.329 536.377C263.831 536.377 263.383 536.498 262.985 536.739C262.587 536.967 262.246 537.294 261.961 537.721C261.691 538.133 261.478 538.631 261.321 539.214C261.165 539.783 261.087 540.409 261.087 541.091V541.134C261.087 541.817 261.165 542.45 261.321 543.033C261.478 543.616 261.698 544.121 261.983 544.547C262.267 544.96 262.608 545.287 263.007 545.529C263.419 545.77 263.874 545.891 264.372 545.891ZM264.329 548.857C263.334 548.857 262.423 548.665 261.599 548.281C260.788 547.882 260.091 547.342 259.508 546.659C258.939 545.962 258.498 545.145 258.185 544.206C257.872 543.267 257.716 542.258 257.716 541.177V541.134C257.716 540.053 257.872 539.043 258.185 538.105C258.512 537.166 258.967 536.348 259.551 535.651C260.134 534.954 260.831 534.407 261.641 534.009C262.466 533.61 263.376 533.411 264.372 533.411C265.353 533.411 266.249 533.61 267.06 534.009C267.885 534.393 268.582 534.933 269.151 535.63C269.734 536.313 270.182 537.123 270.495 538.062C270.822 539.001 270.985 540.01 270.985 541.091V541.134C270.985 542.215 270.822 543.225 270.495 544.163C270.182 545.102 269.734 545.92 269.151 546.617C268.567 547.314 267.863 547.861 267.039 548.259C266.228 548.658 265.325 548.857 264.329 548.857Z" fill="white"/>
<path d="M203.697 178.553H206.982V190.499H214.428V193.486H203.697V178.553ZM215.625 178.553H219.252L223.156 189.07L227.06 178.553H230.601L224.564 193.593H221.663L215.625 178.553ZM232.905 178.553H236.191V190.499H243.636V193.486H232.905V178.553ZM257.438 190.99C258.248 190.99 258.881 190.812 259.336 190.457C259.791 190.101 260.019 189.66 260.019 189.134V189.091C260.019 188.508 259.777 188.06 259.294 187.747C258.81 187.42 258.191 187.257 257.438 187.257C256.684 187.257 256.065 187.42 255.582 187.747C255.098 188.06 254.856 188.508 254.856 189.091V189.134C254.856 189.646 255.084 190.087 255.539 190.457C255.994 190.812 256.627 190.99 257.438 190.99ZM257.438 184.654C258.092 184.654 258.611 184.483 258.995 184.142C259.379 183.801 259.571 183.367 259.571 182.841V182.798C259.571 182.343 259.386 181.938 259.016 181.582C258.646 181.227 258.12 181.049 257.438 181.049C256.755 181.049 256.229 181.227 255.859 181.582C255.489 181.923 255.304 182.322 255.304 182.777V182.819C255.304 183.346 255.496 183.787 255.88 184.142C256.264 184.483 256.783 184.654 257.438 184.654ZM257.438 193.699C256.613 193.699 255.845 193.6 255.134 193.401C254.437 193.187 253.832 192.896 253.32 192.526C252.808 192.142 252.403 191.687 252.104 191.161C251.82 190.635 251.678 190.044 251.678 189.39V189.347C251.678 188.437 251.877 187.705 252.275 187.15C252.687 186.581 253.292 186.112 254.088 185.742C253.505 185.387 253.043 184.96 252.702 184.462C252.36 183.95 252.19 183.289 252.19 182.478V182.435C252.19 181.867 252.31 181.333 252.552 180.835C252.808 180.338 253.164 179.904 253.619 179.534C254.088 179.164 254.643 178.873 255.283 178.659C255.923 178.446 256.641 178.339 257.438 178.339C258.22 178.339 258.931 178.446 259.571 178.659C260.225 178.873 260.78 179.164 261.235 179.534C261.704 179.89 262.06 180.323 262.302 180.835C262.558 181.333 262.686 181.867 262.686 182.435V182.478C262.686 183.289 262.515 183.95 262.174 184.462C261.832 184.96 261.37 185.387 260.787 185.742C261.541 186.14 262.131 186.61 262.558 187.15C262.984 187.676 263.198 188.38 263.198 189.262V189.305C263.198 190.002 263.048 190.62 262.75 191.161C262.465 191.701 262.067 192.163 261.555 192.547C261.043 192.917 260.431 193.202 259.72 193.401C259.023 193.6 258.262 193.699 257.438 193.699Z" fill="white"/>
<path d="M198.833 356.345H202.118V368.291H209.564V371.278H198.833V356.345ZM210.761 356.345H214.388L218.292 366.862L222.196 356.345H225.737L219.7 371.385H216.799L210.761 356.345ZM228.041 356.345H231.327V368.291H238.772V371.278H228.041V356.345ZM249.651 359.566L247.048 360.206L246.366 357.518L250.654 356.238H252.894V371.278H249.651V359.566ZM263.344 365.39V360.739L259.376 365.39H263.344ZM263.344 368.057H256.048L255.515 365.731L263.707 356.238H266.48V365.39H268.486V368.057H266.48V371.278H263.344V368.057Z" fill="white"/>
<path d="M203.782 1.20876H207.068V13.1554H214.513V16.1421H203.782V1.20876ZM215.711 1.20876H219.337L223.241 11.7261L227.145 1.20876H230.687L224.649 16.2488H221.748L215.711 1.20876ZM232.991 1.20876H236.276V13.1554H243.721V16.1421H232.991V1.20876ZM251.848 13.5394L256.819 9.46476C257.288 9.08076 257.686 8.73942 258.014 8.44076C258.341 8.12787 258.604 7.83631 258.803 7.56609C259.016 7.28165 259.166 7.01142 259.251 6.75542C259.35 6.4852 259.4 6.19365 259.4 5.88076C259.4 5.24076 259.215 4.7572 258.846 4.43009C258.476 4.10298 257.992 3.93942 257.395 3.93942C256.812 3.93942 256.293 4.10298 255.838 4.43009C255.397 4.7572 254.899 5.26209 254.344 5.94476L252.04 4.08876C252.41 3.59098 252.78 3.15009 253.15 2.76609C253.534 2.38209 253.939 2.06209 254.366 1.80609C254.806 1.53587 255.29 1.33676 255.816 1.20876C256.342 1.06653 256.94 0.995423 257.608 0.995423C258.376 0.995423 259.073 1.1092 259.699 1.33676C260.339 1.55009 260.879 1.85587 261.32 2.25409C261.775 2.65231 262.124 3.13587 262.366 3.70476C262.622 4.27365 262.75 4.90653 262.75 5.60342V5.64609C262.75 6.27187 262.664 6.83365 262.494 7.33142C262.337 7.81498 262.095 8.2772 261.768 8.71809C261.455 9.14476 261.05 9.57853 260.552 10.0194C260.054 10.4461 259.478 10.9154 258.824 11.4274L256.392 13.3048H262.899V16.1421H251.848V13.5394Z" fill="white"/>
</svg>
