<svg width="464" height="734" viewBox="0 0 464 734" fill="none" xmlns="http://www.w3.org/2000/svg">
<path d="M31.8147 731.277H183.296V733.963H31.8147V731.277Z" fill="white"/>
<path d="M44.2959 733.963H1.62927V728.629H44.2959V733.963Z" fill="white"/>
<path d="M432.827 731.277H281.345V733.963H432.827V731.277Z" fill="white"/>
<path d="M420.345 733.963H463.012V728.629H420.345V733.963Z" fill="white"/>
<path d="M30.4813 553.944H181.963V556.629H30.4813V553.944Z" fill="white"/>
<path d="M42.9626 556.631H0.295898V551.297H42.9626V556.631Z" fill="white"/>
<path d="M431.493 553.944H280.012V556.629H431.493V553.944Z" fill="white"/>
<path d="M419.012 556.631H461.679V551.297H419.012V556.631Z" fill="white"/>
<path d="M33.1479 375.279H184.629V377.964H33.1479V375.279Z" fill="white"/>
<path d="M45.6293 377.964H2.96265V372.631H45.6293V377.964Z" fill="white"/>
<path d="M430.16 375.279H278.679V377.964H430.16V375.279Z" fill="white"/>
<path d="M417.679 377.964H460.345V372.631H417.679V377.964Z" fill="white"/>
<path d="M31.8147 198.389H183.296V201.075H31.8147V198.389Z" fill="white"/>
<path d="M44.2959 201.075H1.62927V195.741H44.2959V201.075Z" fill="white"/>
<path d="M428.827 198.389H277.345V201.075H428.827V198.389Z" fill="white"/>
<path d="M416.345 201.075H459.012V195.741H416.345V201.075Z" fill="white"/>
<path d="M37.1479 21.5H188.629V24.1853H37.1479V21.5Z" fill="white"/>
<path d="M49.6293 24.1853H6.96265V18.852H49.6293V24.1853Z" fill="white"/>
<path d="M426.16 21.5H274.679V24.1853H426.16V21.5Z" fill="white"/>
<path d="M413.679 24.1853H456.345V18.852H413.679V24.1853Z" fill="white"/>
<path d="M197.355 711.011H200.64V722.958H208.085V725.945H197.355V711.011ZM209.283 711.011H212.909L216.813 721.529L220.717 711.011H224.259L218.221 726.051H215.32L209.283 711.011ZM226.563 711.011H229.848V722.958H237.293V725.945H226.563V711.011ZM245.42 723.342L250.391 719.267C250.86 718.883 251.259 718.542 251.586 718.243C251.913 717.93 252.176 717.639 252.375 717.369C252.588 717.084 252.738 716.814 252.823 716.558C252.923 716.288 252.972 715.996 252.972 715.683C252.972 715.043 252.787 714.56 252.418 714.233C252.048 713.906 251.564 713.742 250.967 713.742C250.384 713.742 249.865 713.906 249.41 714.233C248.969 714.56 248.471 715.065 247.916 715.747L245.612 713.891C245.982 713.394 246.352 712.953 246.722 712.569C247.106 712.185 247.511 711.865 247.938 711.609C248.379 711.338 248.862 711.139 249.388 711.011C249.915 710.869 250.512 710.798 251.18 710.798C251.948 710.798 252.645 710.912 253.271 711.139C253.911 711.353 254.451 711.658 254.892 712.057C255.347 712.455 255.696 712.938 255.938 713.507C256.194 714.076 256.322 714.709 256.322 715.406V715.449C256.322 716.074 256.236 716.636 256.066 717.134C255.909 717.618 255.667 718.08 255.34 718.521C255.027 718.947 254.622 719.381 254.124 719.822C253.627 720.249 253.051 720.718 252.396 721.23L249.964 723.107H256.471V725.945H245.42V723.342ZM264.387 723.449C265.197 723.449 265.83 723.271 266.285 722.915C266.74 722.56 266.968 722.119 266.968 721.593V721.55C266.968 720.967 266.726 720.519 266.243 720.206C265.759 719.879 265.14 719.715 264.387 719.715C263.633 719.715 263.014 719.879 262.531 720.206C262.047 720.519 261.805 720.967 261.805 721.55V721.593C261.805 722.105 262.033 722.546 262.488 722.915C262.943 723.271 263.576 723.449 264.387 723.449ZM264.387 717.113C265.041 717.113 265.56 716.942 265.944 716.601C266.328 716.259 266.52 715.826 266.52 715.299V715.257C266.52 714.802 266.335 714.396 265.965 714.041C265.596 713.685 265.069 713.507 264.387 713.507C263.704 713.507 263.178 713.685 262.808 714.041C262.438 714.382 262.253 714.78 262.253 715.235V715.278C262.253 715.804 262.445 716.245 262.829 716.601C263.213 716.942 263.732 717.113 264.387 717.113ZM264.387 726.158C263.562 726.158 262.794 726.058 262.083 725.859C261.386 725.646 260.781 725.354 260.269 724.985C259.757 724.601 259.352 724.146 259.053 723.619C258.769 723.093 258.627 722.503 258.627 721.849V721.806C258.627 720.896 258.826 720.163 259.224 719.609C259.636 719.04 260.241 718.57 261.037 718.201C260.454 717.845 259.992 717.418 259.651 716.921C259.309 716.409 259.139 715.747 259.139 714.937V714.894C259.139 714.325 259.26 713.792 259.501 713.294C259.757 712.796 260.113 712.362 260.568 711.993C261.037 711.623 261.592 711.331 262.232 711.118C262.872 710.905 263.59 710.798 264.387 710.798C265.169 710.798 265.88 710.905 266.52 711.118C267.174 711.331 267.729 711.623 268.184 711.993C268.653 712.348 269.009 712.782 269.251 713.294C269.507 713.792 269.635 714.325 269.635 714.894V714.937C269.635 715.747 269.464 716.409 269.123 716.921C268.781 717.418 268.319 717.845 267.736 718.201C268.49 718.599 269.08 719.068 269.507 719.609C269.933 720.135 270.147 720.839 270.147 721.721V721.763C270.147 722.46 269.997 723.079 269.699 723.619C269.414 724.16 269.016 724.622 268.504 725.006C267.992 725.376 267.38 725.66 266.669 725.859C265.972 726.058 265.212 726.158 264.387 726.158Z" fill="white"/>
<path d="M197.44 533.667H200.725V545.614H208.17V548.601H197.44V533.667ZM209.368 533.667H212.995L216.899 544.185L220.803 533.667H224.344L218.307 548.707H215.405L209.368 533.667ZM226.648 533.667H229.933V545.614H237.379V548.601H226.648V533.667ZM245.506 545.998L250.476 541.923C250.946 541.539 251.344 541.198 251.671 540.899C251.998 540.586 252.261 540.295 252.46 540.025C252.674 539.74 252.823 539.47 252.908 539.214C253.008 538.944 253.058 538.652 253.058 538.339C253.058 537.699 252.873 537.216 252.503 536.889C252.133 536.562 251.65 536.398 251.052 536.398C250.469 536.398 249.95 536.562 249.495 536.889C249.054 537.216 248.556 537.721 248.002 538.403L245.698 536.547C246.067 536.05 246.437 535.609 246.807 535.225C247.191 534.841 247.596 534.521 248.023 534.265C248.464 533.994 248.947 533.795 249.474 533.667C250 533.525 250.597 533.454 251.266 533.454C252.034 533.454 252.731 533.568 253.356 533.795C253.996 534.009 254.537 534.314 254.978 534.713C255.433 535.111 255.781 535.594 256.023 536.163C256.279 536.732 256.407 537.365 256.407 538.062V538.105C256.407 538.73 256.322 539.292 256.151 539.79C255.995 540.274 255.753 540.736 255.426 541.177C255.113 541.603 254.707 542.037 254.21 542.478C253.712 542.905 253.136 543.374 252.482 543.886L250.05 545.763H256.556V548.601H245.506V545.998ZM258.797 545.998L263.768 541.923C264.237 541.539 264.636 541.198 264.963 540.899C265.29 540.586 265.553 540.295 265.752 540.025C265.965 539.74 266.115 539.47 266.2 539.214C266.3 538.944 266.349 538.652 266.349 538.339C266.349 537.699 266.164 537.216 265.795 536.889C265.425 536.562 264.941 536.398 264.344 536.398C263.761 536.398 263.242 536.562 262.787 536.889C262.346 537.216 261.848 537.721 261.293 538.403L258.989 536.547C259.359 536.05 259.729 535.609 260.099 535.225C260.483 534.841 260.888 534.521 261.315 534.265C261.756 533.994 262.239 533.795 262.765 533.667C263.292 533.525 263.889 533.454 264.557 533.454C265.325 533.454 266.022 533.568 266.648 533.795C267.288 534.009 267.828 534.314 268.269 534.713C268.724 535.111 269.073 535.594 269.315 536.163C269.571 536.732 269.699 537.365 269.699 538.062V538.105C269.699 538.73 269.613 539.292 269.443 539.79C269.286 540.274 269.044 540.736 268.717 541.177C268.404 541.603 267.999 542.037 267.501 542.478C267.004 542.905 266.428 543.374 265.773 543.886L263.341 545.763H269.848V548.601H258.797V545.998Z" fill="white"/>
<path d="M198.443 178.553H201.728V190.499H209.173V193.486H198.443V178.553ZM210.371 178.553H213.998L217.902 189.07L221.806 178.553H225.347L219.31 193.593H216.408L210.371 178.553ZM227.651 178.553H230.936V190.499H238.382V193.486H227.651V178.553ZM249.26 181.774L246.658 182.414L245.975 179.726L250.263 178.446H252.503V193.486H249.26V181.774ZM262.271 190.777C262.769 190.777 263.217 190.663 263.615 190.435C264.013 190.194 264.355 189.866 264.639 189.454C264.923 189.027 265.137 188.53 265.279 187.961C265.435 187.378 265.514 186.745 265.514 186.062V186.019C265.514 185.337 265.435 184.711 265.279 184.142C265.123 183.559 264.895 183.054 264.596 182.627C264.312 182.201 263.963 181.866 263.551 181.625C263.153 181.383 262.712 181.262 262.228 181.262C261.731 181.262 261.283 181.383 260.884 181.625C260.486 181.852 260.145 182.179 259.86 182.606C259.59 183.018 259.377 183.516 259.22 184.099C259.064 184.668 258.986 185.294 258.986 185.977V186.019C258.986 186.702 259.064 187.335 259.22 187.918C259.377 188.501 259.597 189.006 259.882 189.433C260.166 189.845 260.507 190.172 260.906 190.414C261.318 190.656 261.773 190.777 262.271 190.777ZM262.228 193.742C261.233 193.742 260.323 193.55 259.498 193.166C258.687 192.768 257.99 192.227 257.407 191.545C256.838 190.848 256.397 190.03 256.084 189.091C255.771 188.153 255.615 187.143 255.615 186.062V186.019C255.615 184.938 255.771 183.929 256.084 182.99C256.411 182.051 256.867 181.234 257.45 180.537C258.033 179.84 258.73 179.292 259.54 178.894C260.365 178.496 261.275 178.297 262.271 178.297C263.252 178.297 264.148 178.496 264.959 178.894C265.784 179.278 266.481 179.818 267.05 180.515C267.633 181.198 268.081 182.009 268.394 182.947C268.721 183.886 268.884 184.896 268.884 185.977V186.019C268.884 187.1 268.721 188.11 268.394 189.049C268.081 189.987 267.633 190.805 267.05 191.502C266.467 192.199 265.763 192.746 264.938 193.145C264.127 193.543 263.224 193.742 262.228 193.742Z" fill="white"/>
<path d="M199.168 356.345H202.453V368.291H209.899V371.278H199.168V356.345ZM211.096 356.345H214.723L218.627 366.862L222.531 356.345H226.072L220.035 371.385H217.134L211.096 356.345ZM228.376 356.345H231.662V368.291H239.107V371.278H228.376V356.345ZM249.986 359.566L247.383 360.206L246.7 357.518L250.988 356.238H253.228V371.278H249.986V359.566ZM262.292 368.718C263.103 368.718 263.729 368.512 264.17 368.099C264.625 367.687 264.852 367.161 264.852 366.521V366.478C264.852 365.838 264.618 365.319 264.148 364.921C263.693 364.508 263.06 364.302 262.25 364.302C261.439 364.302 260.806 364.501 260.351 364.899C259.91 365.298 259.69 365.817 259.69 366.457V366.499C259.69 367.139 259.917 367.673 260.372 368.099C260.842 368.512 261.482 368.718 262.292 368.718ZM262.42 371.534C261.439 371.534 260.607 371.399 259.924 371.129C259.242 370.858 258.637 370.46 258.111 369.934C257.571 369.394 257.137 368.69 256.81 367.822C256.497 366.94 256.34 365.76 256.34 364.281V364.238C256.34 363.086 256.468 362.012 256.724 361.017C256.995 360.021 257.4 359.161 257.94 358.435C258.481 357.71 259.163 357.141 259.988 356.729C260.813 356.302 261.78 356.089 262.89 356.089C263.402 356.089 263.871 356.124 264.298 356.195C264.724 356.266 265.123 356.373 265.492 356.515C265.862 356.658 266.218 356.835 266.559 357.049C266.9 357.248 267.235 357.475 267.562 357.731L265.834 360.27C265.592 360.085 265.357 359.922 265.13 359.779C264.902 359.623 264.667 359.495 264.426 359.395C264.184 359.296 263.928 359.218 263.658 359.161C263.387 359.104 263.096 359.075 262.783 359.075C262.314 359.075 261.901 359.168 261.546 359.353C261.204 359.523 260.906 359.765 260.65 360.078C260.408 360.377 260.216 360.739 260.074 361.166C259.931 361.593 259.832 362.048 259.775 362.531C260.145 362.29 260.564 362.069 261.034 361.87C261.517 361.671 262.129 361.571 262.868 361.571C263.608 361.571 264.298 361.678 264.938 361.891C265.578 362.09 266.132 362.389 266.602 362.787C267.071 363.186 267.441 363.683 267.711 364.281C267.981 364.864 268.116 365.546 268.116 366.329V366.371C268.116 367.139 267.967 367.843 267.668 368.483C267.384 369.109 266.986 369.65 266.474 370.105C265.976 370.56 265.379 370.915 264.682 371.171C263.985 371.413 263.231 371.534 262.42 371.534Z" fill="white"/>
<path d="M203.115 1.2087H206.4V13.1554H213.845V16.142H203.115V1.2087ZM215.043 1.2087H218.67L222.574 11.726L226.478 1.2087H230.019L223.982 16.2487H221.08L215.043 1.2087ZM232.323 1.2087H235.608V13.1554H243.054V16.142H232.323V1.2087ZM258.626 10.254V5.60336L254.658 10.254H258.626ZM258.626 12.9207H251.33L250.796 10.5954L258.988 1.10203H261.762V10.254H263.767V12.9207H261.762V16.142H258.626V12.9207Z" fill="white"/>
</svg>
